<?xml version="1.0" encoding="utf-8"?>
<?xml-stylesheet type="text/xsl" href="rss1.xsl"?>
<rss version="2.0" xmlns:atom="http://www.w3.org/2005/Atom" xmlns:content="http://purl.org/rss/1.0/modules/content/" xmlns:dc="http://purl.org/dc/elements/1.1/" xmlns:media="http://search.yahoo.com/mrss/">
<channel>
 <title>Getty</title>
 <link>http://www.gettyimg.com/</link>
 <atom:link href="http://www.gettyimg.com/" rel="self" type="application/rss+xml" />

 
                <item>
                <title><![CDATA[【Requests】[REQ AUD] - Hi-Res Masters: Summer Songs - Part 2 link dead]]></title>
                <link><![CDATA[https://sharemania.us/threads/hi-res-masters-summer-songs-part-2-link-dead.220396/]]></link>
                <description><![CDATA[<article>
<blockquote class="messageText SelectQuoteContainer ugc baseHtml">
2nd Google link is dead. Re-upload is needed. Thanks!
<div class="messageTextEndMarker">&nbsp;</div>
</blockquote>
</article>]]></description>
                <author><![CDATA[gobble3666]]></author>
                </item>

                
                <item>
                <title><![CDATA[【UPSCALED】Beyoncé, Jay-Z - Deja Vu (2006) - 1080p Upscaled]]></title>
                <link><![CDATA[https://sharemania.us/threads/beyonc%C3%A9-jay-z-deja-vu-2006-1080p-upscaled.220395/]]></link>
                <description><![CDATA[<article>
<blockquote class="messageText SelectQuoteContainer ugc baseHtml">
<img src="https://i.imgur.com/HcznJKO.jpg" class="bbCodeImage LbImage" alt="[​IMG]" data-url="https://i.imgur.com/HcznJKO.jpg" style=""><br>
<img src="https://i.imgur.com/si7xgAb.jpg" class="bbCodeImage LbImage" alt="[​IMG]" data-url="https://i.imgur.com/si7xgAb.jpg" style=""> <img src="https://i.imgur.com/vHRzTx6.jpg" class="bbCodeImage LbImage" alt="[​IMG]" data-url="https://i.imgur.com/vHRzTx6.jpg" style=""><br>
<img src="https://i.imgur.com/ZhMaXsx.jpg" class="bbCodeImage LbImage" alt="[​IMG]" data-url="https://i.imgur.com/ZhMaXsx.jpg" style=""><br>
<br>
<div class="bbCodeBlock bbCodeVfcHH HiddenContent">
<div class="attribution type">Hidden Content:</div>
<blockquote>You must reply before you can see the hidden data contained here.</blockquote>
</div>
<div class="ToggleTriggerAnchor bbCodeSpoilerContainer">
<button type="button" class="button bbCodeSpoilerButton ToggleTrigger Tooltip JsOnly" data-target="> .SpoilerTarget"><span>Spoiler: <span class="SpoilerTitle">MediaInfo</span></span></button>
<div class="SpoilerTarget bbCodeSpoilerText"><span style="font-family: 'Courier New'">General<br>
Format : MPEG-4<br>
Format profile : Base Media / Version 2<br>
Codec ID : mp42 (isom/mp42)<br>
File size : 677 MiB<br>
Duration : 4 min 4 s<br>
Overall bit rate mode : Variable<br>
Overall bit rate : 23.3 Mb/s<br>
<br>
Video<br>
ID : 2<br>
Format : AVC<br>
Format/Info : Advanced Video Codec<br>
Format profile : High@L4.2<br>
Format settings, CABAC : Yes<br>
Format settings, RefFrames : 3 frames<br>
Codec ID : avc1<br>
Codec ID/Info : Advanced Video Coding<br>
Duration : 4 min 4 s<br>
Bit rate mode : Variable<br>
Bit rate : 22.9 Mb/s<br>
Maximum bit rate : 26.0 Mb/s<br>
Width : 1 440 pixels<br>
Height : 1 080 pixels<br>
Display aspect ratio : 4:3<br>
Frame rate mode : Constant<br>
Frame rate : 23.976 (24000/1001) FPS<br>
Standard : NTSC<br>
Color space : YUV<br>
Chroma subsampling : 4:2:0<br>
Bit depth : 8 bits<br>
Scan type : Progressive<br>
Bits/(Pixel*Frame) : 0.615<br>
Stream size : 668 MiB (99%)<br>
Language : English<br>
Color range : Limited<br>
Color primaries : BT.709<br>
Transfer characteristics : BT.709<br>
Matrix coefficients : BT.709<br>
<br>
Audio<br>
ID : 1<br>
Format : AAC<br>
Format/Info : Advanced Audio Codec<br>
Format profile : LC<br>
Codec ID : 40<br>
Duration : 4 min 4 s<br>
Bit rate mode : Variable<br>
Bit rate : 317 kb/s<br>
Maximum bit rate : 491 kb/s<br>
Channel(s) : 2 channels<br>
Channel positions : Front: L R<br>
Sampling rate : 48.0 kHz<br>
Frame rate : 46.875 FPS (1024 SPF)<br>
Compression mode : Lossy<br>
Stream size : 9.24 MiB (1%)<br>
Language : English</span></div>
</div><br>
SOURCE: <a href="https://sharemania.us/threads/beyonc%C3%A9-jay-z-deja-vu-master-480i.121950/" class="internalLink">https://sharemania.us/threads/beyoncé-jay-z-deja-vu-master-480i.121950/</a>
<div class="messageTextEndMarker">&nbsp;</div>
</blockquote>
</article>]]></description>
                <author><![CDATA[lulis]]></author>
                </item>

                
                <item>
                <title><![CDATA[【Apple Music】WEB-RiP - Coldplay - In My Place [2160p AM WEB-DL AAC2.0 H.265]]]></title>
                <link><![CDATA[https://sharemania.us/threads/coldplay-in-my-place-2160p-am-web-dl-aac2-0-h-265.220394/]]></link>
                <description><![CDATA[<article>
<blockquote class="messageText SelectQuoteContainer ugc baseHtml">
<div style="text-align: center"><img src="https://i.imgur.com/eHUE1BV.jpg" class="bbCodeImage LbImage" alt="[​IMG]" data-url="https://i.imgur.com/eHUE1BV.jpg" style=""> <br>
<div style="text-align: center">​</div>
<div class="ToggleTriggerAnchor bbCodeSpoilerContainer">
<button type="button" class="button bbCodeSpoilerButton ToggleTrigger Tooltip JsOnly" data-target="> .SpoilerTarget"><span>Spoiler</span></button>
<div class="SpoilerTarget bbCodeSpoilerText">General<br>
Complete name : C:\Users\BR8NG0R\Downloads\Coldplay\In My Place.m4v<br>
Format : MPEG-4<br>
Codec ID : M4V (isom/iso4/M4V /mp42)<br>
File size : 570 MiB<br>
Duration : 3 min 48 s<br>
Overall bit rate mode : Variable<br>
Overall bit rate : 20.9 Mb/s<br>
Frame rate : 25.000 FPS<br>
Movie name : In My Place<br>
Performer : Coldplay<br>
Genre : Pop<br>
ContentType : Music Video<br>
Recorded date : 2002-06-17 07:00:00 UTC<br>
Encoded date : 2023-05-05 19:29:40 UTC<br>
Tagged date : 2023-05-05 19:29:40 UTC<br>
Copyright : ℗ © 2002 Parlophone Records Ltd, a Warner Music Group Company<br>
Cover : Yes<br>
Rating : None<br>
GenreID : 1614<br>
AppleStoreCountry : Brazil<br>
AlbumTitleID : 471744<br>
AppleStoreCatalogID : 1672098662<br>
Video<br>
ID : 2<br>
Format : HEVC<br>
Format/Info : High Efficiency Video Coding<br>
Format profile : Main 10@L5@High<br>
Codec ID : hvc1<br>
Codec ID/Info : High Efficiency Video Coding<br>
Duration : 3 min 48 s<br>
Bit rate : 20.6 Mb/s<br>
Maximum bit rate : 28.4 Mb/s<br>
Width : 3 840 pixels<br>
Height : 1 596 pixels<br>
Display aspect ratio : 2.40:1<br>
Frame rate mode : Constant<br>
Frame rate : 25.000 FPS<br>
Color space : YUV<br>
Chroma subsampling : 4:2:0<br>
Bit depth : 10 bits<br>
Scan type : Progressive<br>
Bits/(Pixel*Frame) : 0.135<br>
Stream size : 561 MiB (99%)<br>
Title : Core Media Video<br>
Encoded date : 2023-02-15 20:28:23 UTC<br>
Tagged date : 2023-05-05 19:29:42 UTC<br>
Color range : Limited<br>
Color primaries : BT.709<br>
Transfer characteristics : BT.709<br>
Matrix coefficients : BT.709<br>
Codec configuration box : hvcC<br>
Audio<br>
ID : 1<br>
Format : AAC LC<br>
Format/Info : Advanced Audio Codec Low Complexity<br>
Codec ID : mp4a-40-2<br>
Duration : 3 min 48 s<br>
Duration_LastFrame : -17 ms<br>
Bit rate mode : Variable<br>
Bit rate : 282 kb/s<br>
Maximum bit rate : 327 kb/s<br>
Channel(s) : 2 channels<br>
Channel layout : L R<br>
Sampling rate : 48.0 kHz<br>
Frame rate : 46.875 FPS (1024 SPF)<br>
Compression mode : Lossy<br>
Stream size : 7.68 MiB (1%)<br>
Title : Core Media Audio<br>
Encoded date : 2023-02-15 20:20:15 UTC<br>
Tagged date : 2023-05-05 19:29:42 UTC</div>
</div><br>
<div class="bbCodeBlock bbCodeVfcHH HiddenContent">
<div class="attribution type">Hidden Content:</div>
<blockquote>You must reply before you can see the hidden data contained here.</blockquote>
</div></div>
<div class="messageTextEndMarker">&nbsp;</div>
</blockquote>
</article>]]></description>
                <author><![CDATA[Brungor]]></author>
                </item>

                
                <item>
                <title><![CDATA[【Requests】[REQ AUD] - James Ingram – Greatest Hits (The Power Of Great Music)]]></title>
                <link><![CDATA[https://sharemania.us/threads/james-ingram-%E2%80%93-greatest-hits-the-power-of-great-music.220393/]]></link>
                <description><![CDATA[<article>
<blockquote class="messageText SelectQuoteContainer ugc baseHtml">
Hello my dear music friends,<br>
<br>
I am hoping to find the following album amongs your cd/music collection.<br>
<br>
<a href="https://www.discogs.com/release/1684372-James-Ingram-Greatest-Hits-The-Power-Of-Great-Music" target="_blank" class="externalLink" rel="nofollow">https://www.discogs.com/release/1684372-James-Ingram-Greatest-Hits-The-Power-Of-Great-Music</a><br>
<br>
Fingers crossed!
<div class="messageTextEndMarker">&nbsp;</div>
</blockquote>
</article>]]></description>
                <author><![CDATA[Jim King]]></author>
                </item>

                </channel></rss>